<svg width="23" height="30" viewBox="0 0 23 30" fill="none" xmlns="http://www.w3.org/2000/svg">
<path d="M20.6041 5H9.0272C8.23128 5 7.58731 5.99831 7.58731 7.21846L7.58008 20.5292C7.58008 21.7494 8.23128 22.7477 9.0272 22.7477H20.6041C21.4001 22.7477 22.0513 21.7494 22.0513 20.5292V7.21846C22.0513 5.99831 21.4001 5 20.6041 5ZM20.3147 9.71423L15.1992 14.617C14.9676 14.8389 14.6637 14.8389 14.4322 14.617L9.31662 9.71423C9.13573 9.53675 9.0272 9.23726 9.0272 8.91559C9.0272 8.1724 9.55539 7.72871 9.96782 8.11694L14.8157 12.7646L19.6635 8.11694C20.0759 7.72871 20.6041 8.1724 20.6041 8.91559C20.6041 9.23726 20.4956 9.53675 20.3147 9.71423Z" fill="#FFFDFD"/>
</svg>
